<?xml version="1.0" encoding="UTF-8"?><svg id="a" xmlns="http://www.w3.org/2000/svg" width="473.346" height="150.653" viewBox="0 0 473.346 150.653"><path d="M9.023,2.949h12.073l20.275,43.5h-3.502L57.96,2.949h12.257l7.649,63.498h-14.746l-4.608-40.274,2.212.369-15.575,32.533h-10.967l-15.852-32.533,2.396-.369-4.792,40.274H1.189L9.023,2.949Z" fill="#5e573f"/><path d="M91.105,64.696c-3.104-1.904-5.53-4.546-7.281-7.926-1.751-3.378-2.626-7.311-2.626-11.796,0-4.424.875-8.355,2.626-11.796,1.751-3.44,4.193-6.113,7.327-8.018,3.133-1.904,6.728-2.857,10.783-2.857,2.641,0,5.145.539,7.511,1.613,2.364,1.076,4.3,2.581,5.806,4.516,1.504,1.936,2.318,4.193,2.442,6.774l-2.304.092v-11.889h13.64v43.039h-13.64v-12.165l2.304.276c-.124,2.396-.938,4.608-2.442,6.636-1.506,2.027-3.472,3.594-5.898,4.7-2.428,1.105-4.962,1.659-7.603,1.659-3.995,0-7.543-.953-10.645-2.857ZM110.044,53.591c1.535-.89,2.733-2.12,3.594-3.686.859-1.567,1.29-3.21,1.29-4.931,0-1.843-.431-3.532-1.29-5.069-.861-1.535-2.06-2.749-3.594-3.641-1.537-.89-3.226-1.336-5.069-1.336s-3.534.446-5.069,1.336c-1.537.892-2.735,2.105-3.594,3.641-.861,1.537-1.291,3.226-1.291,5.069,0,1.721.429,3.349,1.291,4.884.859,1.537,2.058,2.765,3.594,3.687,1.535.921,3.256,1.382,5.161,1.382,1.781,0,3.44-.445,4.977-1.336Z" fill="#5e573f"/><path d="M135.037,23.409h30.505v10.229h-30.505v-10.229ZM142.87,8.018h13.64v58.429h-13.64V8.018Z" fill="#5e573f"/><path d="M170.283,23.409h30.505v10.229h-30.505v-10.229ZM178.116,8.018h13.64v58.429h-13.64V8.018Z" fill="#5e573f"/><path d="M206.058,0h13.64v34.283l-.276-1.014c-.246-2.334.323-4.332,1.705-5.99s3.133-2.903,5.253-3.732,4.009-1.244,5.668-1.244c3.809,0,6.958.829,9.446,2.488,2.488,1.659,4.377,4.055,5.668,7.188,1.29,3.133,1.935,6.912,1.935,11.335v23.132h-13.64v-22.21c0-2.088-.369-3.825-1.106-5.207s-1.674-2.411-2.811-3.087c-1.138-.675-2.32-1.014-3.548-1.014-1.414,0-2.734.292-3.963.875-1.229.584-2.258,1.552-3.087,2.903-.829,1.352-1.244,3.165-1.244,5.438v22.303h-13.64V0Z" fill="#fff"/><path d="M266.197,64.65c-3.534-1.935-6.267-4.608-8.202-8.018-1.935-3.41-2.903-7.265-2.903-11.566,0-4.546,1.044-8.539,3.133-11.98,2.088-3.44,4.899-6.097,8.433-7.972,3.532-1.873,7.387-2.811,11.566-2.811,4.116,0,7.895.907,11.336,2.719,3.44,1.813,6.189,4.377,8.248,7.695,2.058,3.318,3.087,7.096,3.087,11.335,0,1.045-.062,2.673-.184,4.885h-34.929v-8.018h21.565c-.062-1.413-.477-2.657-1.244-3.732-.769-1.074-1.829-1.904-3.18-2.488-1.352-.583-2.796-.875-4.332-.875-1.905,0-3.594.384-5.068,1.152-1.475.769-2.659,1.981-3.548,3.64-.892,1.659-1.336,3.841-1.336,6.543,0,2.089.429,3.933,1.291,5.53.859,1.598,2.088,2.827,3.686,3.687,1.597.861,3.471,1.29,5.622,1.29,1.965,0,3.901-.399,5.806-1.198,1.904-.797,3.594-1.843,5.069-3.133l7.097,8.755c-2.151,2.273-4.931,4.086-8.341,5.438-3.41,1.351-6.928,2.027-10.552,2.027-4.547,0-8.586-.968-12.119-2.903Z" fill="#fff"/><path d="M302.429,23.409h14.654l8.202,28.569h-2.212l8.294-28.569h11.059l8.294,28.662h-2.304l8.202-28.662h14.653l-14.838,43.039h-11.704l-8.939-30.505h2.304l-8.663,30.505h-11.612l-15.391-43.039Z" fill="#fff"/><path d="M7.833,85.718h12.073l20.275,43.5h-3.502l20.091-43.5h12.257l7.649,63.498h-14.746l-4.608-40.274,2.212.369-15.575,32.533h-10.967l-15.852-32.533,2.396-.369-4.792,40.274H0l7.833-63.498Z" fill="#5e573f"/><path d="M156.541,145.853c-4.977-2.979-8.894-6.988-11.75-12.027-2.857-5.037-4.285-10.537-4.285-16.497,0-5.898,1.428-11.35,4.285-16.358,2.857-5.007,6.774-8.986,11.75-11.935,4.977-2.949,10.352-4.423,16.128-4.423,5.468,0,10.552,1.26,15.252,3.778,4.7,2.52,8.493,5.96,11.382,10.322l-11.059,7.834c-1.721-2.703-3.825-4.761-6.313-6.175-2.488-1.413-5.361-2.12-8.617-2.12-3.502,0-6.635.861-9.4,2.581-2.765,1.721-4.947,4.041-6.543,6.958-1.599,2.919-2.396,6.098-2.396,9.539,0,3.564.767,6.805,2.304,9.723,1.535,2.919,3.687,5.253,6.451,7.004s5.929,2.626,9.493,2.626c3.256,0,6.143-.706,8.663-2.12,2.519-1.413,4.638-3.471,6.359-6.175l11.151,7.833c-2.949,4.363-6.774,7.803-11.474,10.322-4.7,2.52-9.785,3.779-15.252,3.779-5.776,0-11.151-1.489-16.128-4.47Z" fill="#5e573f"/><path d="M206.082,82.769h13.64v66.447h-13.64v-66.447Z" fill="#fff"/><path d="M236.382,147.419c-3.534-1.935-6.267-4.608-8.202-8.018-1.935-3.41-2.903-7.265-2.903-11.566,0-4.546,1.044-8.539,3.133-11.98,2.088-3.44,4.899-6.097,8.433-7.972,3.532-1.873,7.387-2.811,11.566-2.811,4.116,0,7.895.907,11.336,2.719,3.44,1.813,6.189,4.377,8.248,7.695,2.058,3.318,3.087,7.096,3.087,11.335,0,1.045-.062,2.673-.184,4.885h-34.929v-8.018h21.565c-.062-1.413-.477-2.657-1.244-3.732-.769-1.074-1.829-1.904-3.18-2.488-1.352-.583-2.796-.875-4.332-.875-1.905,0-3.594.384-5.068,1.152-1.475.769-2.659,1.981-3.548,3.64-.892,1.659-1.336,3.841-1.336,6.543,0,2.089.429,3.933,1.291,5.53.859,1.598,2.088,2.827,3.686,3.687,1.597.861,3.471,1.29,5.622,1.29,1.965,0,3.901-.399,5.806-1.198,1.904-.797,3.594-1.843,5.069-3.133l7.097,8.755c-2.151,2.273-4.931,4.086-8.341,5.438-3.41,1.351-6.928,2.027-10.552,2.027-4.547,0-8.586-.968-12.119-2.903Z" fill="#fff"/><path d="M276.204,106.178h13.64v10.875l-.369-1.014c.061-2.334.768-4.332,2.12-5.99,1.351-1.659,3.042-2.903,5.069-3.732,2.028-.83,3.871-1.244,5.53-1.244,3.809,0,6.958.829,9.446,2.488,2.488,1.659,4.377,4.055,5.668,7.188,1.29,3.133,1.935,6.912,1.935,11.335v23.132h-13.64v-22.303c0-2.088-.369-3.825-1.106-5.207s-1.674-2.396-2.811-3.042c-1.138-.645-2.32-.967-3.548-.967-1.414,0-2.734.292-3.963.875-1.229.584-2.258,1.536-3.087,2.857-.829,1.322-1.244,3.119-1.244,5.391v22.395h-13.64v-43.039Z" fill="#fff"/><path d="M334.928,147.511c-3.195-1.874-5.776-4.53-7.741-7.972-1.967-3.44-2.949-7.403-2.949-11.889s.968-8.433,2.903-11.843c1.936-3.41,4.516-6.051,7.742-7.926,3.226-1.873,6.62-2.811,10.184-2.811,2.272,0,4.546.415,6.82,1.244,2.272.83,4.239,2.12,5.898,3.871,1.659,1.751,2.611,3.917,2.857,6.497l-2.304,1.383v-35.297h13.64v66.447h-13.64v-11.981l2.304,1.382c-.185,2.581-1.122,4.747-2.811,6.498-1.69,1.751-3.672,3.057-5.944,3.917-2.274.859-4.516,1.29-6.728,1.29-3.626,0-7.036-.938-10.23-2.811ZM352.899,136.36c1.535-.89,2.749-2.12,3.64-3.686.89-1.567,1.336-3.24,1.336-5.023,0-1.843-.461-3.532-1.382-5.069-.921-1.535-2.135-2.733-3.64-3.594-1.506-.86-3.119-1.29-4.838-1.29-1.783,0-3.442.43-4.977,1.29-1.536.861-2.75,2.074-3.64,3.64-.891,1.567-1.336,3.242-1.336,5.023s.445,3.441,1.336,4.977c.89,1.537,2.104,2.765,3.64,3.687,1.535.921,3.194,1.382,4.977,1.382,1.719,0,3.348-.445,4.884-1.336Z" fill="#fff"/><path d="M389.136,147.465c-3.564-1.904-6.421-4.576-8.571-8.018-2.151-3.44-3.226-7.341-3.226-11.704,0-4.424,1.074-8.355,3.226-11.796,2.15-3.44,5.007-6.113,8.571-8.018,3.562-1.904,7.403-2.857,11.52-2.857s7.956.953,11.52,2.857c3.562,1.905,6.436,4.578,8.617,8.018,2.18,3.441,3.271,7.373,3.271,11.796,0,4.363-1.091,8.264-3.271,11.704-2.182,3.442-5.055,6.114-8.617,8.018-3.564,1.904-7.404,2.857-11.52,2.857s-7.958-.953-11.52-2.857ZM405.494,136.452c1.505-.83,2.657-1.996,3.456-3.502.798-1.505,1.198-3.21,1.198-5.115,0-1.965-.415-3.732-1.244-5.299-.83-1.567-1.967-2.765-3.41-3.594-1.444-.83-3.027-1.244-4.746-1.244-1.783,0-3.41.415-4.884,1.244-1.475.829-2.643,2.027-3.502,3.594-.861,1.566-1.29,3.333-1.29,5.299,0,1.905.429,3.61,1.29,5.115.86,1.506,2.012,2.672,3.456,3.502,1.443.83,3.025,1.244,4.746,1.244,1.781,0,3.424-.415,4.931-1.244Z" fill="#fff"/><path d="M430.308,106.178h13.64v10.875l-.369-1.014c.061-2.334.768-4.332,2.12-5.99,1.351-1.659,3.042-2.903,5.069-3.732,2.028-.83,3.871-1.244,5.53-1.244,3.809,0,6.958.829,9.446,2.488,2.488,1.659,4.377,4.055,5.668,7.188,1.29,3.133,1.935,6.912,1.935,11.335v23.132h-13.64v-22.303c0-2.088-.369-3.825-1.106-5.207s-1.674-2.396-2.811-3.042c-1.138-.645-2.32-.967-3.548-.967-1.414,0-2.734.292-3.963.875-1.229.584-2.258,1.536-3.087,2.857-.829,1.322-1.244,3.119-1.244,5.391v22.395h-13.64v-43.039Z" fill="#fff"/><path d="M97.56,147.082c-4.455-2.379-8.006-5.72-10.656-10.022-2.65-4.3-3.975-9.216-3.975-14.746s1.325-10.443,3.975-14.746c2.649-4.3,6.221-7.621,10.713-9.964,4.493-2.342,9.349-3.514,14.573-3.514,4.531,0,8.658.903,12.384,2.707,3.724,1.806,6.854,4.32,9.389,7.545l-9.446,7.604c-1.307-1.688-3.053-3.053-5.242-4.09-2.189-1.037-4.475-1.555-6.854-1.555-3.073,0-5.857.711-8.352,2.131-2.497,1.422-4.455,3.341-5.875,5.76-1.422,2.419-2.131,5.126-2.131,8.122s.709,5.723,2.131,8.179c1.42,2.459,3.359,4.397,5.817,5.818,2.457,1.422,5.26,2.131,8.41,2.131,2.38,0,4.666-.499,6.854-1.498,2.189-.998,3.935-2.38,5.242-4.147l9.331,7.603c-2.459,3.15-5.549,5.645-9.273,7.488-3.726,1.843-7.854,2.765-12.384,2.765-5.299,0-10.177-1.191-14.63-3.571Z" fill="#5e573f"/></svg>